<svg width="384" height="384" viewBox="0 0 24 24" xmlns="http://www.w3.org/2000/svg" shape-rendering="crispEdges"><rect x="6" y="3" width="3" height="1" fill="#e2d7c2"/><rect x="15" y="3" width="3" height="1" fill="#e2d7c2"/><rect x="6" y="5" width="3" height="1" fill="#e2d7c2"/><rect x="15" y="5" width="3" height="1" fill="#e2d7c2"/><rect x="8" y="6" width="8" height="2" fill="#e2d7c2"/><rect x="5" y="7" width="3" height="1" fill="#e2d7c2"/><rect x="16" y="7" width="3" height="1" fill="#e2d7c2"/><rect x="7" y="8" width="1" height="4" fill="#e2d7c2"/><rect x="10" y="8" width="4" height="2" fill="#e2d7c2"/><rect x="16" y="8" width="1" height="4" fill="#e2d7c2"/><rect x="6" y="9" width="1" height="1" fill="#e2d7c2"/><rect x="17" y="9" width="1" height="1" fill="#e2d7c2"/><rect x="8" y="10" width="3" height="1" fill="#e2d7c2"/><rect x="13" y="10" width="3" height="1" fill="#e2d7c2"/><rect x="6" y="11" width="1" height="1" fill="#e2d7c2"/><rect x="8" y="11" width="2" height="3" fill="#e2d7c2"/><rect x="11" y="11" width="2" height="1" fill="#e2d7c2"/><rect x="14" y="11" width="2" height="3" fill="#e2d7c2"/><rect x="17" y="11" width="1" height="1" fill="#e2d7c2"/><rect x="21" y="11" width="1" height="1" fill="#e2d7c2"/><rect x="10" y="12" width="1" height="2" fill="#e2d7c2"/><rect x="13" y="12" width="1" height="2" fill="#e2d7c2"/><rect x="5" y="13" width="3" height="1" fill="#e2d7c2"/><rect x="11" y="13" width="2" height="1" fill="#e2d7c2"/><rect x="16" y="13" width="3" height="1" fill="#e2d7c2"/><rect x="20" y="13" width="1" height="1" fill="#e2d7c2"/><rect x="7" y="14" width="2" height="1" fill="#e2d7c2"/><rect x="15" y="14" width="2" height="1" fill="#e2d7c2"/><rect x="10" y="15" width="4" height="4" fill="#e2d7c2"/><rect x="18" y="15" width="1" height="1" fill="#e2d7c2"/><rect x="7" y="16" width="3" height="1" fill="#e2d7c2"/><rect x="14" y="16" width="3" height="1" fill="#e2d7c2"/><rect x="7" y="18" width="3" height="1" fill="#e2d7c2"/><rect x="14" y="18" width="3" height="1" fill="#e2d7c2"/><rect x="7" y="20" width="3" height="1" fill="#e2d7c2"/><rect x="14" y="20" width="3" height="1" fill="#e2d7c2"/><rect x="6" y="4" width="1" height="1" fill="#d9c5a0"/><rect x="8" y="4" width="1" height="1" fill="#d9c5a0"/><rect x="15" y="4" width="1" height="1" fill="#d9c5a0"/><rect x="17" y="4" width="1" height="1" fill="#d9c5a0"/><rect x="5" y="6" width="3" height="1" fill="#d9c5a0"/><rect x="16" y="6" width="3" height="1" fill="#d9c5a0"/><rect x="5" y="8" width="2" height="1" fill="#d9c5a0"/><rect x="17" y="8" width="2" height="1" fill="#d9c5a0"/><rect x="5" y="10" width="2" height="1" fill="#d9c5a0"/><rect x="17" y="10" width="2" height="1" fill="#d9c5a0"/><rect x="5" y="12" width="3" height="1" fill="#d9c5a0"/><rect x="16" y="12" width="3" height="1" fill="#d9c5a0"/><rect x="20" y="12" width="2" height="1" fill="#d9c5a0"/><rect x="19" y="14" width="2" height="1" fill="#d9c5a0"/><rect x="7" y="15" width="3" height="1" fill="#d9c5a0"/><rect x="14" y="15" width="3" height="1" fill="#d9c5a0"/><rect x="17" y="16" width="2" height="1" fill="#d9c5a0"/><rect x="7" y="17" width="3" height="1" fill="#d9c5a0"/><rect x="14" y="17" width="3" height="1" fill="#d9c5a0"/><rect x="7" y="19" width="3" height="1" fill="#d9c5a0"/><rect x="14" y="19" width="3" height="1" fill="#d9c5a0"/><rect x="7" y="4" width="1" height="1" fill="#b8af9d"/><rect x="16" y="4" width="1" height="1" fill="#b8af9d"/><rect x="8" y="8" width="1" height="2" fill="#0"/><rect x="14" y="8" width="1" height="2" fill="#0"/><rect x="9" y="9" width="1" height="1" fill="#0"/><rect x="15" y="9" width="1" height="1" fill="#0"/><rect x="9" y="8" width="1" height="1" fill="#FFF"/><rect x="15" y="8" width="1" height="1" fill="#FFF"/><rect x="3" y="9" width="3" height="1" fill="#333"/><rect x="18" y="9" width="3" height="1" fill="#333"/><rect x="3" y="11" width="3" height="1" fill="#333"/><rect x="10" y="11" width="1" height="1" fill="#333"/><rect x="13" y="11" width="1" height="1" fill="#333"/><rect x="18" y="11" width="3" height="1" fill="#333"/><rect x="11" y="12" width="2" height="1" fill="#333"/><rect x="11" y="10" width="2" height="1" fill="#7f6739"/><rect x="19" y="13" width="1" height="1" fill="#d1c7b3"/><rect x="9" y="14" width="6" height="1" fill="#d1c7b3"/><rect x="17" y="15" width="1" height="1" fill="#d1c7b3"/><rect x="7" y="21" width="3" height="1" fill="#918a7e"/><rect x="14" y="21" width="3" height="1" fill="#918a7e"/></svg>